<svg xmlns="http://www.w3.org/2000/svg" viewBox="0 0 54.5 86.5"><defs><style>.cls-1{fill:#222;}</style></defs><title>chew</title><g id="Layer_2" data-name="Layer 2"><g id="Layer_1-2" data-name="Layer 1"><path class="cls-1" d="M29.28,49.4c-7,12-6.73,24.43-1.66,37.1C20.22,81,16.17,73.86,15.55,64.85c-.17-2.52,0-5.06.07-7.59.52-.4.44-.94.35-1.49a62.37,62.37,0,0,1,8.32-21,78.71,78.71,0,0,0,6.28-12.43c3-7.76,1.45-15-2.32-22.33a5.36,5.36,0,0,1,3.57,1.73c7.55,6.8,8.87,15.38,7,24.84-1.31,6.81-4.54,12.86-7.6,19A12,12,0,0,0,29.28,49.4Z"/><path class="cls-1" d="M48.33,49.87C43.05,58.38,42,67.3,45.81,76.67A8.26,8.26,0,0,1,46,78a20.59,20.59,0,0,1-8.42-15.58,34,34,0,0,1,1-10c.83-2.38,1.43-4.85,2.88-7,2.6-4.3,5.34-8.54,6.89-13.38C50,27,49.59,23.91,46.49,17a10.06,10.06,0,0,1,4.83,4c3.84,5.17,3.72,10.92,2.17,16.79-.56,2.11-1.44,4.12-2.18,6.18Z"/><path class="cls-1" d="M6.18,57.24c-.24,4.21,1.36,8.06,2.49,12.28A20.22,20.22,0,0,1,.22,54.35c-.64-1.67.35-3.33,0-5A43.14,43.14,0,0,1,6.68,32.63c4.72-7.54,7.43-15.29,2.2-24.06,4.63,1.91,7.92,7.31,8.15,12.72a30.09,30.09,0,0,1-3.31,14.36c-.91,1.91-1.84,3.81-2.76,5.71l0,0a10.25,10.25,0,0,0-2,4L8.32,47c-1.11,2.66-2.51,5.25-1.91,8.31Z"/></g></g></svg>