<svg xmlns="http://www.w3.org/2000/svg" xmlns:xlink="http://www.w3.org/1999/xlink" viewBox="0 0 379.61 180.81"><defs><style>.cls-1{fill:#b2292e;}.cls-2{fill:url(#New_Gradient_Swatch_1);}.cls-3{fill:url(#New_Gradient_Swatch_1-2);}.cls-4{fill:#ffe700;}.cls-5{fill:url(#New_Gradient_Swatch_1-3);}.cls-6{fill:url(#New_Gradient_Swatch_1-4);}.cls-7{fill:#ff9015;}.cls-8{fill:url(#New_Gradient_Swatch_1-5);}.cls-9{fill:url(#New_Gradient_Swatch_1-6);}</style><linearGradient id="New_Gradient_Swatch_1" y1="101.41" x2="155.4" y2="101.41" gradientUnits="userSpaceOnUse"><stop offset="0" stop-color="#4d4d4d"/><stop offset="0.35" stop-color="#7d7d7d"/><stop offset="0.72" stop-color="#ccc"/><stop offset="1" stop-color="#fff"/></linearGradient><linearGradient id="New_Gradient_Swatch_1-2" x1="29.19" y1="100.5" x2="127.44" y2="100.5" xlink:href="#New_Gradient_Swatch_1"/><linearGradient id="New_Gradient_Swatch_1-3" x1="220.77" y1="101.41" x2="379.61" y2="101.41" xlink:href="#New_Gradient_Swatch_1"/><linearGradient id="New_Gradient_Swatch_1-4" x1="250.6" y1="100.48" x2="351.03" y2="100.48" xlink:href="#New_Gradient_Swatch_1"/><linearGradient id="New_Gradient_Swatch_1-5" x1="103.08" y1="79.41" x2="261.92" y2="79.41" xlink:href="#New_Gradient_Swatch_1"/><linearGradient id="New_Gradient_Swatch_1-6" x1="132.91" y1="78.48" x2="233.34" y2="78.48" xlink:href="#New_Gradient_Swatch_1"/></defs><title>durable</title><g id="Layer_2" data-name="Layer 2"><g id="Layer_1-2" data-name="Layer 1"><path class="cls-1" d="M149.19,101.53A70.88,70.88,0,1,1,78.31,30.65,70.88,70.88,0,0,1,149.19,101.53Z"/><path class="cls-2" d="M146.33,101.41c-.49,28.9-18.32,55.12-45.85,64.83-26.75,9.44-57.1,1-75.4-20.55C6.49,123.8,3.81,91.48,18.3,66.74A69.41,69.41,0,0,1,91.18,34c32.11,6.42,54.61,35,55.15,67.38.1,5.83,9.17,5.85,9.07,0-.54-32.14-20-61.21-50.27-72.75C74.55,17,38.79,26.47,17.9,51.62c-20.68,24.89-23.83,61.06-7.43,89,16.58,28.3,49.79,43.11,81.92,37.09,36.6-6.85,62.39-39.64,63-76.35C155.5,95.58,146.43,95.57,146.33,101.41Z"/><path class="cls-3" d="M123.72,83.8a51,51,0,0,0-9.32-14,50.34,50.34,0,0,0-12.29-9.57c-1.45-.81-3.51-2.31-5.32-2-2.22.38-4.24,3.12-5.83,4.52l-7.13,6.28c-1.78,1.57-4.51,3.25-5.84,5.34a25,25,0,0,0-2.44-2.33c-2.49-2.29-5-4.56-7.5-6.84-2.22-2-4.81-5.57-7.7-6.62-3.61-1.31-9.08,3.48-11.73,5.46a50,50,0,0,0-9.94,9.77,50.82,50.82,0,0,0-6.8,12.25c-1.36,3.48-4.1,9.11-1.82,12.63A31.67,31.67,0,0,0,45.35,111a1.73,1.73,0,0,0,0,.75,62.66,62.66,0,0,0,2.37,9.17c.63,1.6,1.58,4.06,3.75,3.67s2.9-3.37,3.48-5.07a53.31,53.31,0,0,0,1.75-7.18,20.26,20.26,0,0,0,2.17-.42c6-1.55,11.39-5.2,15.79-9.51a26.18,26.18,0,0,0,3.76-4c1.59,2.93,4.46,5.19,7.31,7.2,4.1,2.89,9.75,6.1,15,6.83a54.79,54.79,0,0,0,2.22,8.48c.63,1.6,1.58,4.06,3.75,3.67s2.9-3.37,3.48-5.07a66.78,66.78,0,0,0,2-8.52,1.53,1.53,0,0,0,0-.37,26.44,26.44,0,0,0,5.08-2.86c3.28-2.34,8.6-6.42,9.84-10.43S125.3,87.33,123.72,83.8ZM51.1,120.69a13.71,13.71,0,0,1-.58-1.37c-.28-.8-.5-1.62-.71-2.44-.35-1.36-.66-2.73-1-4.1L52,112.5l1.45.06C53,115.36,52.48,118.45,51.1,120.69Zm24-25.09c-.68,1.71-3.09,3.54-4.42,4.76-4.36,4-10,7.55-16.06,8-6.32.5-12.27-3-16.73-7.19-2.33-2.19-4.43-4.19-4-7.51A31.26,31.26,0,0,1,36,87.23,45.63,45.63,0,0,1,53.25,66c2-1.32,4.37-3.57,6.78-2.32s4.82,4.39,6.88,6.27S72,73.9,73.79,76.23c2.12,2.76,1.32,7,1.31,10.31C75.11,89,76,93.4,75.09,95.6Zm31.27,25.09c-.2-.45-.41-.9-.57-1.37-.28-.8-.5-1.62-.71-2.44-.35-1.36-.66-2.73-1-4.1l4.66-.41C108.3,115.21,107.78,118.4,106.36,120.69Zm16.27-24.82c-.51,2.35-3,4.42-4.79,6-4.23,3.88-9.09,6.29-14.87,6.45-5.1,0-11-3.52-15.08-6.41-1.83-1.3-4.42-3.16-5.58-5.15-1.66-2.84-.9-7.46-.9-10.62s-.78-7.62,1.27-10.42c1.44-2,4.11-3.63,5.94-5.25l6.55-5.76c2.66-2.35,3.7-1.51,6.52.2A46.5,46.5,0,0,1,120.88,88C121.74,90.31,123.16,93.44,122.63,95.87Zm-12.25,44.21c-1-.29-1.94-.56-2.92-.83a1.47,1.47,0,0,0,0-.29l-.06-.16a1.45,1.45,0,0,0-.11-.29c-.79-2-1.56-4.1-2.37-6.14-.59-1.49-1.07-3.47-2.85-3.92a3.31,3.31,0,0,0-3.53,1.7c-1.35,2-2.46,4.19-3.68,6.26,0,0,0,.06,0,.08a101.85,101.85,0,0,0-30-.27,1.46,1.46,0,0,0,0-.2A69.63,69.63,0,0,0,61.14,130a3.16,3.16,0,0,0-3.4-1.36c-1.59.5-2.2,2-2.72,3.46-.7,1.92-1.46,3.84-2.19,5.75a1.38,1.38,0,0,0-.15.4l0,.08s0,.06,0,.1,0,.05,0,.07a1.71,1.71,0,0,0,0,.3c-1.5.41-3,.85-4.48,1.34a2.08,2.08,0,0,0-1.21,1,1.72,1.72,0,0,0,.27,2.59h0a1.83,1.83,0,0,0,.75.54c19.11,14.57,44.41,14.16,63.41-.56C112.66,142.61,111.75,140.5,110.38,140.08Zm-10.56-5.89c.28-.47.55-.94.82-1.41.39-.67.3-.92.77-.52.66.57,1.07,2.71,1.39,3.54l.52,1.38-4.64-1ZM58.27,132.4c.38-.83.33-.63.66,0a15.12,15.12,0,0,0,.9,1.49c.35.59.69,1.18,1,1.78l-4.21.86C57.15,135.17,57.66,133.75,58.27,132.4ZM53.36,143A97.79,97.79,0,0,1,105,143,46.79,46.79,0,0,1,53.36,143Zm22.7-76a2.21,2.21,0,0,0,3,0L92,56.21a1.73,1.73,0,0,0,.57-2.05,2.05,2.05,0,0,0-.57-1C86.7,48.11,79.8,44.23,72.4,47a18.69,18.69,0,0,0-8.53,6.7,2.15,2.15,0,0,0,.34,2.59Zm-3.4-15.42c5.29-2.69,10.4-.38,14.57,3.1l-9.6,8-9-8.07A16.36,16.36,0,0,1,72.66,51.54Z"/><path class="cls-4" d="M373.26,101.53a72.45,72.45,0,1,1-72.45-72.45A72.45,72.45,0,0,1,373.26,101.53Z"/><path class="cls-5" d="M370.34,101.41c-.5,29.54-18.73,56.34-46.87,66.27-27.34,9.64-58.37,1-77.07-21-19-22.38-21.74-55.41-6.93-80.7A70.93,70.93,0,0,1,314,32.54c32.82,6.56,55.81,35.82,56.37,68.87.1,6,9.37,6,9.27,0-.56-32.86-20.43-62.56-51.38-74.36C297,15.14,260.42,24.81,239.07,50.52c-21.14,25.44-24.36,62.41-7.6,91,16.94,28.93,50.89,44.07,83.74,37.92,37.4-7,63.77-40.53,64.4-78.05C379.71,95.45,370.44,95.45,370.34,101.41Z"/><path class="cls-6" d="M347.23,83.41a52.47,52.47,0,0,0-9.53-14.27,51.86,51.86,0,0,0-12.56-9.78c-1.48-.83-3.59-2.36-5.44-2-2.27.38-4.34,3.19-5.95,4.61l-7.3,6.43c-1.82,1.6-4.6,3.32-6,5.45A27.36,27.36,0,0,0,298,71.43c-2.55-2.34-5.11-4.66-7.67-7-2.27-2.06-4.91-5.7-7.87-6.77-3.69-1.33-9.28,3.56-12,5.58a49.82,49.82,0,0,0-17.1,22.51c-1.39,3.56-4.19,9.31-1.87,12.91a32.31,32.31,0,0,0,15.63,12.56,1.82,1.82,0,0,0,0,.77,64.12,64.12,0,0,0,2.42,9.37c.65,1.64,1.62,4.16,3.84,3.75s3-3.44,3.56-5.18a57.19,57.19,0,0,0,1.79-7.33,21.06,21.06,0,0,0,2.21-.44c6.16-1.58,11.64-5.31,16.14-9.72a27.26,27.26,0,0,0,3.84-4.08c1.63,3,4.56,5.3,7.47,7.35,4.2,3,10,6.23,15.38,7a56,56,0,0,0,2.27,8.66c.64,1.64,1.62,4.16,3.83,3.75s3-3.44,3.56-5.18a68.3,68.3,0,0,0,2.06-8.7,1.27,1.27,0,0,0,0-.39,27,27,0,0,0,5.19-2.92c3.36-2.39,8.8-6.56,10.06-10.66S348.84,87,347.23,83.41ZM273,121.11a14.23,14.23,0,0,1-.58-1.4c-.29-.81-.52-1.65-.73-2.48-.36-1.39-.67-2.8-1-4.2l3.24-.29c.5,0,1,.06,1.49.06C275,115.66,274.41,118.83,273,121.11Zm24.53-25.64c-.69,1.75-3.16,3.62-4.51,4.86-4.46,4.12-10.23,7.72-16.42,8.21-6.46.51-12.55-3-17.11-7.35-2.37-2.25-4.52-4.29-4-7.68a31.24,31.24,0,0,1,2.11-6.59,46.61,46.61,0,0,1,17.63-21.7c2-1.34,4.47-3.64,6.94-2.36s4.92,4.49,7,6.41,5.2,4,7,6.4c2.17,2.83,1.35,7.21,1.34,10.54C297.53,88.68,298.41,93.22,297.52,95.47Zm32,25.64c-.21-.46-.42-.92-.59-1.4-.29-.81-.51-1.65-.73-2.48-.36-1.39-.67-2.8-1-4.2l4.76-.42C331.46,115.52,330.93,118.78,329.49,121.11Zm16.63-25.37c-.53,2.41-3.1,4.53-4.9,6.18-4.33,4-9.29,6.43-15.2,6.59-5.21,0-11.25-3.59-15.42-6.55-1.87-1.33-4.52-3.23-5.71-5.26-1.69-2.91-.91-7.63-.91-10.86s-.8-7.78,1.3-10.65c1.47-2,4.2-3.71,6.07-5.36L318,63.94c2.73-2.41,3.79-1.55,6.67.21a47.51,47.51,0,0,1,19.61,23.58C345.2,90.07,346.66,93.26,346.12,95.74Zm-12.53,45.2c-1-.3-2-.58-3-.85a1.71,1.71,0,0,0-.05-.3l-.06-.16a1.25,1.25,0,0,0-.12-.3c-.8-2.09-1.59-4.19-2.42-6.27-.6-1.53-1.09-3.55-2.92-4a3.37,3.37,0,0,0-3.6,1.74c-1.38,2-2.52,4.28-3.76,6.4,0,0,0,.06,0,.08A104,104,0,0,0,287,137a1.46,1.46,0,0,0-.05-.2,68.89,68.89,0,0,0-3.69-6.2,3.25,3.25,0,0,0-3.48-1.39c-1.62.51-2.25,2.08-2.77,3.53-.72,2-1.49,3.93-2.24,5.89a1.4,1.4,0,0,0-.16.4l0,.09s0,.06,0,.1,0,0,0,.08a1.6,1.6,0,0,0-.05.29c-1.53.42-3.06.87-4.58,1.37a2.13,2.13,0,0,0-1.23,1,1.74,1.74,0,0,0,.27,2.64l0,0a1.82,1.82,0,0,0,.76.55c19.53,14.89,45.39,14.47,64.81-.58C335.92,143.52,335,141.37,333.59,140.94Zm-10.79-6c.28-.48.56-1,.83-1.44.4-.69.31-.95.79-.53.68.57,1.09,2.76,1.42,3.62l.54,1.4-4.75-1.06Zm-42.47-1.84c.38-.84.33-.64.67.06.25.53.62,1,.92,1.52l1.06,1.82-4.31.88C279.19,135.91,279.71,134.47,280.33,133.08Zm-5,10.8c17.46-4.86,35.27-4.57,52.77,0A47.82,47.82,0,0,1,275.31,143.88Zm23.2-77.69a2.25,2.25,0,0,0,3.08,0l13.2-11a1.76,1.76,0,0,0,.59-2.09,2.07,2.07,0,0,0-.59-1c-5.4-5.21-12.45-9.17-20-6.33a19.16,19.16,0,0,0-8.72,6.86,2.2,2.2,0,0,0,.34,2.64ZM295,50.43c5.42-2.75,10.64-.38,14.9,3.18l-9.82,8.17-9.17-8.25A17.25,17.25,0,0,1,295,50.43Z"/><path class="cls-7" d="M255.57,79.53A72.45,72.45,0,1,1,183.12,7.08,72.45,72.45,0,0,1,255.57,79.53Z"/><path class="cls-8" d="M252.65,79.41c-.5,29.54-18.73,56.34-46.87,66.27-27.34,9.64-58.37,1-77.07-21-19-22.38-21.74-55.41-6.93-80.7a70.93,70.93,0,0,1,74.5-33.43c32.82,6.56,55.81,35.82,56.37,68.87.1,6,9.37,6,9.27,0-.56-32.86-20.43-62.56-51.39-74.36-31.25-11.91-67.8-2.24-89.16,23.47C100.24,54,97,90.93,113.78,119.54c16.94,28.93,50.89,44.07,83.73,37.92,37.41-7,63.78-40.53,64.41-78.05C262,73.45,252.75,73.45,252.65,79.41Z"/><path class="cls-9" d="M229.54,61.41A52.47,52.47,0,0,0,220,47.14a51.86,51.86,0,0,0-12.56-9.78c-1.48-.83-3.59-2.36-5.44-2-2.27.38-4.34,3.19-6,4.61l-7.29,6.43c-1.82,1.6-4.6,3.32-6,5.45a27.36,27.36,0,0,0-2.49-2.38c-2.55-2.34-5.11-4.66-7.67-7-2.27-2.06-4.91-5.7-7.87-6.77-3.69-1.33-9.28,3.56-12,5.58a49.82,49.82,0,0,0-17.1,22.51c-1.4,3.56-4.2,9.31-1.87,12.91a32.31,32.31,0,0,0,15.63,12.56,1.82,1.82,0,0,0,0,.77,64.12,64.12,0,0,0,2.42,9.37c.64,1.64,1.62,4.16,3.84,3.75s3-3.44,3.55-5.18a55.6,55.6,0,0,0,1.8-7.33,21.06,21.06,0,0,0,2.21-.44c6.16-1.58,11.64-5.31,16.14-9.72a27.26,27.26,0,0,0,3.84-4.08c1.63,3,4.56,5.3,7.47,7.35,4.2,3,10,6.23,15.38,7a56,56,0,0,0,2.26,8.66c.65,1.64,1.62,4.16,3.84,3.75s3-3.44,3.56-5.18a68.3,68.3,0,0,0,2.06-8.7,1.27,1.27,0,0,0,0-.39A27,27,0,0,0,223,85.93c3.36-2.39,8.8-6.56,10.06-10.66S231.15,65,229.54,61.41ZM155.3,99.11a14.23,14.23,0,0,1-.58-1.4,24.24,24.24,0,0,1-.73-2.48c-.36-1.39-.67-2.8-1-4.2l3.24-.29c.5,0,1,.06,1.48.06C157.26,93.66,156.72,96.83,155.3,99.11Zm24.53-25.64c-.69,1.75-3.17,3.62-4.52,4.86-4.45,4.12-10.22,7.72-16.41,8.21-6.46.51-12.55-3-17.11-7.35-2.37-2.25-4.52-4.29-4-7.68a30.68,30.68,0,0,1,2.11-6.59,46.61,46.61,0,0,1,17.63-21.7c2-1.34,4.47-3.64,6.94-2.36s4.92,4.49,7,6.41,5.2,4,7,6.4c2.17,2.83,1.35,7.21,1.34,10.54C179.84,66.68,180.72,71.22,179.83,73.47Zm32,25.64c-.21-.46-.42-.92-.59-1.4-.29-.81-.51-1.65-.73-2.48-.36-1.39-.67-2.8-1-4.2l4.76-.42C213.77,93.52,213.24,96.78,211.8,99.11Zm16.63-25.37c-.53,2.41-3.1,4.53-4.91,6.18-4.32,4-9.28,6.43-15.2,6.59-5.2,0-11.24-3.59-15.41-6.55-1.87-1.33-4.52-3.23-5.71-5.26-1.69-2.91-.92-7.63-.92-10.86s-.79-7.78,1.31-10.65c1.47-2,4.2-3.71,6.07-5.36l6.69-5.89c2.73-2.41,3.79-1.55,6.67.21a47.51,47.51,0,0,1,19.61,23.58C227.51,68.07,229,71.26,228.43,73.74Zm-12.53,45.2c-1-.3-2-.58-3-.85a1.71,1.71,0,0,0,0-.3l-.06-.16a1.25,1.25,0,0,0-.12-.3c-.8-2.09-1.59-4.19-2.42-6.27-.6-1.53-1.09-3.55-2.92-4a3.37,3.37,0,0,0-3.6,1.74c-1.38,2-2.52,4.28-3.76,6.4,0,0,0,.06,0,.08a103.93,103.93,0,0,0-30.65-.28,1.46,1.46,0,0,0-.05-.2,69,69,0,0,0-3.7-6.2,3.23,3.23,0,0,0-3.47-1.39c-1.62.51-2.25,2.08-2.77,3.53-.72,2-1.49,3.93-2.24,5.89a1.4,1.4,0,0,0-.16.4l0,.09s0,.06,0,.1,0,.05,0,.08a1.6,1.6,0,0,0-.05.29c-1.53.42-3.06.87-4.58,1.37a2.13,2.13,0,0,0-1.23,1,1.74,1.74,0,0,0,.27,2.64v0a1.85,1.85,0,0,0,.77.55c19.53,14.89,45.39,14.47,64.81-.58C218.23,121.52,217.3,119.37,215.9,118.94Zm-10.79-6c.28-.48.56-1,.83-1.44.4-.69.31-1,.79-.53.68.57,1.09,2.76,1.42,3.62l.54,1.4-4.75-1.06Zm-42.47-1.84c.38-.84.33-.64.67.06.25.53.62,1,.92,1.52l1.06,1.82-4.31.88C161.49,113.91,162,112.47,162.64,111.08Zm-5,10.8c17.46-4.86,35.27-4.57,52.77,0A47.82,47.82,0,0,1,157.62,121.88Zm23.2-77.69a2.25,2.25,0,0,0,3.08,0l13.2-11a1.76,1.76,0,0,0,.59-2.09,2.07,2.07,0,0,0-.59-1c-5.4-5.21-12.45-9.17-20-6.33a19.11,19.11,0,0,0-8.72,6.86,2.2,2.2,0,0,0,.34,2.64Zm-3.48-15.76c5.42-2.75,10.64-.38,14.9,3.18l-9.82,8.17-9.17-8.25A17.25,17.25,0,0,1,177.34,28.43Z"/></g></g></svg>