<svg xmlns="http://www.w3.org/2000/svg" viewBox="0 0 86.12 53.17"><title>embed</title><g id="Layer_2" data-name="Layer 2"><g id="Layer_1-2" data-name="Layer 1"><polygon points="45.1 32.99 41.02 32.99 41.02 28.8 37.02 28.8 37.02 24.79 41.02 24.79 41.02 20.63 45.1 20.63 45.1 24.79 49.1 24.79 49.1 28.8 45.1 28.8 45.1 32.99"/><path d="M50.75,11.24c-.92-.46-1.85-.9-2.78-1.34A72.77,72.77,0,0,1,63.47,5c7-1.24,12-.48,13.45,2,.78,1.34.6,3.35-.47,5.78L70.71,9.63l3,11.51,12.4-3L80.33,15c2.25-4.9,1.56-8.17.42-10.15C78.26.5,71.85-1,62.7.65A82.12,82.12,0,0,0,42.5,7.52c-16.74-6.75-34-9-38.32-.43-2.24,4.46.06,10.63,6.46,17.37,5.88,6.19,14.68,12.38,24.77,17.43.92.46,1.86.91,2.8,1.35-14.88,6.42-26.55,7.06-29,2.87-.78-1.36-.6-3.39.49-5.85L16,43.17,12.17,31.9,0,35.74,5.72,38.4c-2.13,4.78-1.44,8-.32,9.92,2,3.39,6,4.85,11.23,4.85,7.49,0,17.4-3,27-7.57,9.08,3.67,18.34,6,25.58,6C75.34,51.6,80,49.94,82,46h0C87,36.09,69.61,20.68,50.75,11.24ZM8.13,9.07C9.16,7,12.31,5.93,17,5.93c5.19,0,12.24,1.36,20.28,4.28-.91.49-1.82,1-2.73,1.51A103.86,103.86,0,0,0,16.92,24.36c-1.09-1-2.14-2-3.07-2.95C9,16.28,6.83,11.66,8.13,9.07ZM37.38,37.94a100.53,100.53,0,0,1-17.05-10.7A99.86,99.86,0,0,1,36.72,15.55c2-1.14,4-2.19,6-3.18,2,.85,4,1.79,6.1,2.82A100.54,100.54,0,0,1,65.85,25.88a100.79,100.79,0,0,1-16.42,11.7c-2,1.16-4,2.21-6,3.19C41.49,39.91,39.45,39,37.38,37.94ZM78,44.06h0c-2.17,4.34-13.86,4.4-29.1-1.14.92-.49,1.83-1,2.73-1.51A104.51,104.51,0,0,0,69.26,28.75C76.33,35.1,79.6,40.91,78,44.06Z"/></g></g></svg>