<svg xmlns="http://www.w3.org/2000/svg" viewBox="0 0 70.5 72.92"><defs><style>.cls-1{fill:#222;}</style></defs><title>repeat</title><g id="Layer_2" data-name="Layer 2"><g id="Layer_1-2" data-name="Layer 1"><g id="_0ooPcJ.tif" data-name="0ooPcJ.tif"><path class="cls-1" d="M0,32.67c.28-1.44.49-2.89.86-4.31C4.68,13.71,14,4.44,28.69,1,40-1.61,50.38.9,59.63,8l.56.41,5.62-5.94c1.57,9.46,3.12,18.76,4.69,28.17L42.33,25.9l10.13-9.79C46.1,11.37,39,9.58,31.4,11.3,19.84,13.89,13,21.31,10.59,33H0Z"/><path class="cls-1" d="M0,42.36l12.22,2.06L27.49,47c.16,0,.33.08.65.16L18.06,56.88c6.4,4.75,13.49,6.53,21.15,4.78,11.52-2.62,18.33-10,20.73-21.61H70.47c-1.28,10.63-6.06,19.24-14.63,25.64a35.92,35.92,0,0,1-19.21,7.1c-.21,0-.42.09-.64.13H31.73c-.21,0-.42-.11-.64-.13a36.38,36.38,0,0,1-20.34-7.87c-.13-.1-.27-.18-.44-.29L4.76,70.49a6.11,6.11,0,0,1-.17-.6Q2.73,58.72.87,47.54C.61,46,.29,44.38,0,42.8Z"/></g></g></g></svg>