<svg xmlns="http://www.w3.org/2000/svg" xmlns:xlink="http://www.w3.org/1999/xlink" viewBox="0 0 154.29 154.29"><defs><style>.cls-1{fill:#1b3280;}.cls-2{fill:url(#New_Gradient_Swatch_1);}</style><linearGradient id="New_Gradient_Swatch_1" y1="77.14" x2="154.29" y2="77.14" gradientUnits="userSpaceOnUse"><stop offset="0" stop-color="#4d4d4d"/><stop offset="0.35" stop-color="#7d7d7d"/><stop offset="0.72" stop-color="#ccc"/><stop offset="1" stop-color="#fff"/></linearGradient></defs><title>slobber-wicking</title><g id="Layer_2" data-name="Layer 2"><g id="Layer_1-2" data-name="Layer 1"><path class="cls-1" d="M147.62,77.07A70.48,70.48,0,1,1,77.14,6.59,70.47,70.47,0,0,1,147.62,77.07Z"/><path class="cls-2" d="M77.14,154.29a77.15,77.15,0,1,1,77.15-77.15A77.24,77.24,0,0,1,77.14,154.29Zm0-146.68a69.53,69.53,0,1,0,69.54,69.53A69.62,69.62,0,0,0,77.14,7.61Zm31,20.41V56.14l14.06-13.87ZM64.62,65.43c2.1-3,4.7-6.71,6.78-6.71A16,16,0,0,1,78.16,60a17,17,0,0,0,6.78,1.38c6,0,10.26-4.76,14-8.95.84-.94,1.66-1.87,2.5-2.74,3.63-3.74,3.7-3.81,9.29-3.81a3.75,3.75,0,0,0,0-7.5c-7.53,0-9.59.85-14.67,6.09-.91.94-1.82,1.95-2.72,3-2.81,3.17-5.72,6.43-8.39,6.43a9.79,9.79,0,0,1-4.1-.88,23.18,23.18,0,0,0-9.44-1.72c-6,0-9.67,5.27-12.92,9.91-1.67,2.38-4.18,6-5.57,6a16.86,16.86,0,0,1-6.33-1,15.66,15.66,0,0,0-5.52-1,14.39,14.39,0,0,0-8.91,2.82,3.71,3.71,0,0,0-.5,5.19,3.8,3.8,0,0,0,5.24.63,7.17,7.17,0,0,1,4.17-1.14,8.62,8.62,0,0,1,3.11.65,23.9,23.9,0,0,0,8.74,1.44C58.2,74.61,61.62,69.73,64.62,65.43Zm42.81,9.12v28.13l14.06-13.87ZM63.94,112c2.09-3,4.7-6.71,6.78-6.71a16,16,0,0,1,6.76,1.22,16.83,16.83,0,0,0,6.78,1.38c6,0,10.26-4.75,14-9,.83-.93,1.66-1.87,2.5-2.73,3.63-3.74,3.7-3.81,9.29-3.81a3.75,3.75,0,1,0,0-7.5c-7.54,0-9.6.85-14.67,6.08-.92,1-1.82,2-2.73,3-2.81,3.16-5.72,6.43-8.38,6.43a9.79,9.79,0,0,1-4.1-.88,23,23,0,0,0-9.44-1.72c-6,0-9.67,5.26-12.92,9.91-1.67,2.38-4.18,6-5.58,6a16.76,16.76,0,0,1-6.32-1,15.7,15.7,0,0,0-5.52-1,14.4,14.4,0,0,0-8.92,2.82,3.71,3.71,0,0,0-.49,5.18,3.78,3.78,0,0,0,5.23.63,7.31,7.31,0,0,1,4.18-1.13,8.41,8.41,0,0,1,3.11.65,23.84,23.84,0,0,0,8.73,1.43C57.52,121.14,60.93,116.27,63.94,112ZM36.4,94.13,50.47,108V79.87Zm26.13-2.37c.91-.94,1.82-2,2.73-3,2.8-3.17,5.71-6.44,8.38-6.44a9.79,9.79,0,0,1,4.1.88A23,23,0,0,0,87.18,85c6,0,9.67-5.27,12.92-9.91,1.67-2.38,4.18-6,5.57-6a16.78,16.78,0,0,1,6.33,1,15.66,15.66,0,0,0,5.52,1,14.3,14.3,0,0,0,8.91-2.83,3.7,3.7,0,0,0,.5-5.18,3.81,3.81,0,0,0-5.24-.63,7.17,7.17,0,0,1-4.17,1.14,8.62,8.62,0,0,1-3.11-.65,23.86,23.86,0,0,0-8.74-1.44c-5.29,0-8.71,4.87-11.71,9.17-2.1,3-4.7,6.72-6.78,6.72a16,16,0,0,1-6.76-1.23,16.83,16.83,0,0,0-6.78-1.38c-6,0-10.26,4.76-14,9-.83.94-1.66,1.87-2.5,2.74-3.63,3.74-3.7,3.81-9.29,3.81a3.75,3.75,0,1,0,0,7.5C55.39,97.85,57.45,97,62.53,91.76Z"/></g></g></svg>