<svg xmlns="http://www.w3.org/2000/svg" viewBox="0 0 61.24 57.79"><defs><style>.cls-1{fill:#242021;}</style></defs><title>sniff</title><g id="Layer_2" data-name="Layer 2"><g id="Layer_1-2" data-name="Layer 1"><path class="cls-1" d="M59.18,18a5,5,0,0,0-1-1.9l-.19.13h0l.19-.13v0c.06-.21-.08-.35-.16-.51A53.06,53.06,0,0,0,54.53,10a23.72,23.72,0,0,0-7-6.8A22.37,22.37,0,0,0,34.35,0c-2.29.11-4.57.12-6.86,0A29.24,29.24,0,0,0,21,.4,20.56,20.56,0,0,0,9.29,6.73,41.86,41.86,0,0,0,3,16a16,16,0,0,0-1.43,2.95c-.28,1-.8,1.92-1,3A19.3,19.3,0,0,0,0,26.47c.08,2.45,1.51,5,4.76,4.62h0a6,6,0,0,0,3.35-.77,5,5,0,0,0,2.28-3.51,11.44,11.44,0,0,1,2.5-5.45,4.1,4.1,0,0,1,4.88-1.28,8.57,8.57,0,0,1,4.39,5,5.6,5.6,0,0,1-1.42,6.8l-.11.09c-.08,0-.17.09-.16.21v0a17.88,17.88,0,0,1-2.43,1.13,14.85,14.85,0,0,1-7.46.1,11.94,11.94,0,0,0-4.13-.25,3.15,3.15,0,0,0-3,2.6,7.63,7.63,0,0,0,.44,3.86A16.22,16.22,0,0,0,6.8,44.47,22.71,22.71,0,0,0,12,49c2.42,1.49,5.19,1.58,7.85,1.92a9.17,9.17,0,0,1,7,4.26,8.92,8.92,0,0,0,2.06,2.35c.47.36.86.29,1.11-.23A2.86,2.86,0,0,0,30.19,56l-.3-9a103.49,103.49,0,0,1,0-11.14,9.6,9.6,0,0,1,.43-2.38c0-.14.09-.35.3-.32s.21.19.24.31c.11.43.23.85.3,1.28a53.75,53.75,0,0,1,.3,7.4.59.59,0,0,0,0,.45c0,1-.05,2-.09,3q-.16,5.24-.35,10.45a2.83,2.83,0,0,0,.23,1.28c.24.53.58.59,1.09.24a8.28,8.28,0,0,0,2.15-2.49,8.82,8.82,0,0,1,5.95-4c.76-.14,1.52-.25,2.28-.37a9.88,9.88,0,0,0,2.44-.25,10.13,10.13,0,0,0,1.09-.29v0c.54-.17,1.09-.3,1.62-.51a16.08,16.08,0,0,0,5.75-4.32,15,15,0,0,0,4.08-7.7c.46-2.77-.61-4.25-3.38-4.58a14.43,14.43,0,0,0-4.39.41,12.78,12.78,0,0,1-8.11-.76c-.1-.05-.24-.19-.36,0h0c-.08-.39-.47-.45-.72-.65A5.17,5.17,0,0,1,38.58,27a9.16,9.16,0,0,1,3.82-6.33,4.17,4.17,0,0,1,5.85.55,8.43,8.43,0,0,1,1.5,2.22c.07.15,0,.44.33.41h0a.41.41,0,0,0,0,.4A20.1,20.1,0,0,1,51,27.36a3.8,3.8,0,0,0,.8,1.74,5.9,5.9,0,0,0,5.35,2,4.37,4.37,0,0,0,2.17-.6,4.83,4.83,0,0,0,1.92-4.16A18.93,18.93,0,0,0,59.18,18ZM19.47,33.52a.23.23,0,0,0,.19-.13h0A.23.23,0,0,1,19.47,33.52Zm.21-.14h0a.27.27,0,0,1,0-.16.27.27,0,0,0,0,.16.37.37,0,0,0,.18-.08A.37.37,0,0,1,19.68,33.38ZM20,33.1Z"/></g></g></svg>