<svg xmlns="http://www.w3.org/2000/svg" xmlns:xlink="http://www.w3.org/1999/xlink" viewBox="0 0 50.53 50.52"><defs><style>.cls-1{fill:#a4c12e;}.cls-2{fill:url(#New_Gradient_Swatch_1);}.cls-3{fill:url(#New_Gradient_Swatch_1-2);}</style><linearGradient id="New_Gradient_Swatch_1" y1="25.26" x2="50.53" y2="25.26" gradientUnits="userSpaceOnUse"><stop offset="0" stop-color="#4d4d4d"/><stop offset="0.35" stop-color="#7d7d7d"/><stop offset="0.72" stop-color="#ccc"/><stop offset="1" stop-color="#fff"/></linearGradient><linearGradient id="New_Gradient_Swatch_1-2" x1="11.89" y1="25.3" x2="39.04" y2="25.3" xlink:href="#New_Gradient_Swatch_1"/></defs><title>dog-safe</title><g id="Layer_2" data-name="Layer 2"><g id="Layer_1-2" data-name="Layer 1"><path class="cls-1" d="M48.51,25.3a23,23,0,1,1-23-23A23,23,0,0,1,48.51,25.3Z"/><path class="cls-2" d="M47.58,25.26A22.64,22.64,0,0,1,32.67,46.34,22.35,22.35,0,0,1,6,14,22.58,22.58,0,0,1,29.65,3.35,22.62,22.62,0,0,1,47.58,25.26a1.48,1.48,0,0,0,3,0A25.63,25.63,0,0,0,34.18,1.61,25.3,25.3,0,0,0,3.4,38,25.56,25.56,0,0,0,30,50.09c11.9-2.23,20.29-12.89,20.49-24.83A1.48,1.48,0,0,0,47.58,25.26Z"/><path class="cls-3" d="M39,18.16c0-1.64-.07-3.33-.07-5.21a1.2,1.2,0,0,0-.85-1.15L25.82,8a1.26,1.26,0,0,0-.72,0L12.86,11.8A1.2,1.2,0,0,0,12,13c0,1.91,0,3.61-.07,5.26-.13,5.87-.22,10.11,1.7,14A21.66,21.66,0,0,0,25,42.61a1.12,1.12,0,0,0,.44.09,1.13,1.13,0,0,0,.45-.09A21.66,21.66,0,0,0,37.28,32.22C39.2,28.32,39.11,24.08,39,18.16Zm-3.86,13a19.25,19.25,0,0,1-9.66,9.05,19.33,19.33,0,0,1-9.66-9.05c-1.66-3.36-1.57-7.36-1.45-12.88,0-1.33.07-2.83.07-4.44l11-3.47,11,3.47c0,1.58,0,3.06.08,4.38v.06C36.7,23.79,36.79,27.79,35.12,31.15ZM28.85,18.32a4.22,4.22,0,0,0-3.07,1.32l-.32.33-.31-.33a4.22,4.22,0,0,0-6.15,0A4.62,4.62,0,0,0,19,26l5.72,6a1,1,0,0,0,.72.31h0a1,1,0,0,0,.69-.28l5.78-6a4.62,4.62,0,0,0,0-6.31A4.22,4.22,0,0,0,28.85,18.32Zm-6.78,2a2.17,2.17,0,0,1,1.59.71l1.06,1.11a1,1,0,0,0,.72.32,1.15,1.15,0,0,0,.77-.32l1.05-1.11a2.19,2.19,0,0,1,3.18,0,2.54,2.54,0,0,1,0,3.48l-5,5.23-5-5.23a2.54,2.54,0,0,1,0-3.48A2.15,2.15,0,0,1,22.07,20.35Z"/></g></g></svg>