<svg xmlns="http://www.w3.org/2000/svg" xmlns:xlink="http://www.w3.org/1999/xlink" viewBox="0 0 51.01 51"><defs><style>.cls-1{fill:#00bed6;}.cls-2{fill:url(#New_Gradient_Swatch_1);}.cls-3{fill:url(#New_Gradient_Swatch_1-2);}</style><linearGradient id="New_Gradient_Swatch_1" y1="25.5" x2="51.01" y2="25.5" gradientUnits="userSpaceOnUse"><stop offset="0" stop-color="#4d4d4d"/><stop offset="0.35" stop-color="#7d7d7d"/><stop offset="0.72" stop-color="#ccc"/><stop offset="1" stop-color="#fff"/></linearGradient><linearGradient id="New_Gradient_Swatch_1-2" x1="12.29" y1="25.5" x2="44.25" y2="25.5" xlink:href="#New_Gradient_Swatch_1"/></defs><title>easy to clean</title><g id="Layer_2" data-name="Layer 2"><g id="Layer_1-2" data-name="Layer 1"><path class="cls-1" d="M49,25.54A23.27,23.27,0,1,1,25.71,2.28,23.26,23.26,0,0,1,49,25.54Z"/><path class="cls-2" d="M48,25.5A22.84,22.84,0,0,1,33,46.78,22.56,22.56,0,0,1,6,14.12,22.77,22.77,0,0,1,29.93,3.39,22.81,22.81,0,0,1,48,25.5a1.49,1.49,0,0,0,3,0A25.88,25.88,0,0,0,34.51,1.62,25.54,25.54,0,0,0,3.44,38.39,25.79,25.79,0,0,0,30.33,50.56c12-2.25,20.48-13,20.68-25.06C51,23.59,48.06,23.59,48,25.5Z"/><path class="cls-3" d="M23.69,36.45a5.65,5.65,0,0,1-5.64-5.65,1,1,0,1,0-2.09,0,7.74,7.74,0,0,0,7.73,7.73,1,1,0,1,0,0-2.08ZM34,25.73a11.26,11.26,0,0,1,1.14,4.95A11.41,11.41,0,1,1,13.79,25h0l9-15.58,0,0,.07-.09L23,9.22,23,9.16l.1-.07,0,0,0,0,.11,0,.08,0,.1,0,.1,0h.2l.1,0L24,9l.09,0,.1,0,0,0,0,0,.1.07.07.06.07.08.06.09,0,0,3.84,6.65a6,6,0,0,0-1.86,1l-2.89-5-8.09,14h0a9.32,9.32,0,1,0,16.58.8A5.68,5.68,0,0,0,34,25.73ZM38.26,18a5.17,5.17,0,0,1-5.16-5.16.89.89,0,0,0-1.78,0v0A5.18,5.18,0,0,1,26.69,18a3.87,3.87,0,0,0-.48,0,.88.88,0,0,0-.66.29.89.89,0,0,0,.6,1.55,5.25,5.25,0,0,0,.56,0,5.18,5.18,0,0,1,4.63,4.61c0,.18,0,.35,0,.53a.89.89,0,0,0,.89.89h0a.89.89,0,0,0,.9-.89c0-.18,0-.35,0-.53a5.16,5.16,0,0,1,5.13-4.63.9.9,0,1,0,0-1.79Zm-6,3.51a7,7,0,0,0-2.62-2.6,7,7,0,0,0,2.6-2.65,7,7,0,0,0,2.65,2.63A7,7,0,0,0,32.24,21.49Zm12,4.06a.6.6,0,0,0-.6-.6l-.39,0a3,3,0,0,1-2.67-2.65c0-.12,0-.24,0-.36a.59.59,0,0,0-.59-.6h0a.6.6,0,0,0-.6.6c0,.12,0,.24,0,.36a3,3,0,0,1-3,2.69.59.59,0,0,0-.6.59.6.6,0,0,0,.6.6,3,3,0,0,1,3,3.05.59.59,0,0,0,.6.59.58.58,0,0,0,.59-.59V29.2h0a3.05,3.05,0,0,1,2.68-3l.32,0a.73.73,0,0,0,.65-.65ZM40,27.06a4.28,4.28,0,0,0-1.47-1.46A4.19,4.19,0,0,0,40,24.16a4.22,4.22,0,0,0,1.45,1.43A4.31,4.31,0,0,0,40,27.06Z"/></g></g></svg>