<svg xmlns="http://www.w3.org/2000/svg" xmlns:xlink="http://www.w3.org/1999/xlink" viewBox="0 0 51.01 51"><defs><style>.cls-1{fill:#9c5e95;}.cls-2{fill:url(#New_Gradient_Swatch_1);}.cls-3{fill:url(#New_Gradient_Swatch_1-2);}</style><linearGradient id="New_Gradient_Swatch_1" y1="25.5" x2="51.01" y2="25.5" gradientUnits="userSpaceOnUse"><stop offset="0" stop-color="#4d4d4d"/><stop offset="0.35" stop-color="#7d7d7d"/><stop offset="0.72" stop-color="#ccc"/><stop offset="1" stop-color="#fff"/></linearGradient><linearGradient id="New_Gradient_Swatch_1-2" x1="9.78" y1="25.5" x2="41.23" y2="25.5" xlink:href="#New_Gradient_Swatch_1"/></defs><title>treat free</title><g id="Layer_2" data-name="Layer 2"><g id="Layer_1-2" data-name="Layer 1"><path class="cls-1" d="M49,25.54A23.27,23.27,0,1,1,25.71,2.28,23.26,23.26,0,0,1,49,25.54Z"/><path class="cls-2" d="M48,25.5A22.84,22.84,0,0,1,33,46.78,22.56,22.56,0,0,1,6,14.12,22.77,22.77,0,0,1,29.93,3.39,22.81,22.81,0,0,1,48,25.5a1.49,1.49,0,0,0,3,0A25.88,25.88,0,0,0,34.51,1.62,25.54,25.54,0,0,0,3.44,38.39,25.79,25.79,0,0,0,30.33,50.56c12-2.25,20.48-13,20.68-25.06C51,23.59,48.06,23.59,48,25.5Z"/><path class="cls-3" d="M41.15,24.66a3.26,3.26,0,0,0-1.68-2.09c-1.08-.61-3.1-1-5.49,2,0-2.82.09-7.94.18-11.44,0-1.12-.58-3.26-2.78-3.26a3.94,3.94,0,0,0-1.7.33A3,3,0,0,0,29.07,9a2.37,2.37,0,0,0-1.69-.82,3.34,3.34,0,0,0-2.56.74,2.51,2.51,0,0,0-.6.88,2.53,2.53,0,0,0-1.73-.48c-1.36.08-2.12,1.28-2.49,2.53a.6.6,0,0,0-.13.09,3.71,3.71,0,0,0-2.11-.54c-1.67,0-2.5,1.58-2.45,4.6,0,1.32.11,14.57.12,17l-.61.63a3.49,3.49,0,0,0-4.4,1.34l-.11.14c-1.25,1.51,0,3.12.49,3.72a2.86,2.86,0,0,0,2.92.53,3.48,3.48,0,0,0,.11,1.81,2.69,2.69,0,0,0,1.77,1.6,2.72,2.72,0,0,0,.75.11,3.44,3.44,0,0,0,2-.7,3.14,3.14,0,0,0,1.18-2.86,10.83,10.83,0,0,0,5.31,1.8h.45c3.13-.25,5.66-1,7.77-3.92,1.9-2.62,7.41-9.45,7.51-9.57a4.14,4.14,0,0,0,.59-2.93m-23.53,13,.17.43h0c0,.07.8,2.11-.31,2.92a1.75,1.75,0,0,1-1.49.37,1.32,1.32,0,0,1-.83-.74,3,3,0,0,1,.07-1.49,1.15,1.15,0,0,0-.4-1.15,1.17,1.17,0,0,0-1.23-.14,2.13,2.13,0,0,1-1.67.08c-.94-1.2-.78-1.59-.51-1.91l.12-.14c.68-.83,1.26-1.56,3.17-.74l.46.19.27-.28v.06l6.27-6.27v0l.06-.06-.14-.14-.08-.21s-.74-2,.34-2.77a1.61,1.61,0,0,1,1.4-.33,1.22,1.22,0,0,1,.77.71A2.87,2.87,0,0,1,24,27.4a1.13,1.13,0,0,0,1.57,1.3,2.1,2.1,0,0,1,1.58-.05c.86,1.15.7,1.51.45,1.81l-.11.13c-.69.81-1.23,1.46-3,.65l-.29-.13L24,31ZM39.39,26.73c-.24.31-5.59,6.94-7.51,9.57-1.79,2.47-3.9,3.11-6.72,3.33-2,.15-4.22-1.13-5.28-1.83,1-1.15,3.1-3.66,4.43-5a3.36,3.36,0,0,0,4.25-1.22l.11-.13c1.24-1.44,0-3-.4-3.62a2.76,2.76,0,0,0-2.78-.59,3.27,3.27,0,0,0-.08-1.71,2.64,2.64,0,0,0-1.68-1.58,3,3,0,0,0-2.67.52c-1.54,1.06-1.26,3-1,4l-3.17,3.14c0-4.22-.09-14.42-.11-15.57s.09-3.11,1-3.13h.08a1.82,1.82,0,0,1,1.76.85v8.07a.73.73,0,0,0,.73.73.73.73,0,0,0,.72-.73V14.47l.05-.79c0-.6.38-2.87,1.45-2.94s1.29,1,1.31,1.28h.05v9.73a.73.73,0,0,0,.72.73.73.73,0,0,0,.73-.73V11.11A1.85,1.85,0,0,1,25.82,10a1.94,1.94,0,0,1,1.47-.34.86.86,0,0,1,.67.31,2.49,2.49,0,0,1,.42,1.47v0a2.77,2.77,0,0,1,0,.33h0v10a.72.72,0,1,0,1.44,0V11.94c.1-.17.44-.58,1.56-.58,1.28,0,1.33,1.63,1.33,1.8-.37,14.15-.24,14.18.45,14.38l.56.14.28-.49c1-1.71,2.91-4.42,4.75-3.36a1.83,1.83,0,0,1,1,1.16,2.65,2.65,0,0,1-.35,1.74"/></g></g></svg>